<?xml version="1.0" encoding="UTF-8"?>
<svg xmlns="http://www.w3.org/2000/svg" xmlns:xlink="http://www.w3.org/1999/xlink" viewBox="0 0 20 20" width="20px" height="20px">
<g id="surface6608525">
<path style=" stroke:none;fill-rule:nonzero;fill:rgb(90.588236%,29.803923%,23.529412%);fill-opacity:1;" d="M 17.082031 7.5 L 2.917969 7.5 C 2.6875 7.5 2.5 7.3125 2.5 7.082031 C 2.5 6.851562 2.6875 6.667969 2.917969 6.667969 L 17.082031 6.667969 C 17.3125 6.667969 17.5 6.851562 17.5 7.082031 C 17.5 7.3125 17.3125 7.5 17.082031 7.5 Z M 17.082031 7.5 "/>
<path style=" stroke:none;fill-rule:nonzero;fill:rgb(90.588236%,29.803923%,23.529412%);fill-opacity:1;" d="M 16.25 4.582031 L 16.25 17.082031 C 16.25 17.542969 15.878906 17.917969 15.417969 17.917969 L 4.582031 17.917969 C 4.121094 17.917969 3.75 17.542969 3.75 17.082031 L 3.75 4.582031 Z M 16.25 4.582031 "/>
<path style=" stroke:none;fill-rule:nonzero;fill:rgb(90.588236%,29.803923%,23.529412%);fill-opacity:1;" d="M 3.332031 4.582031 L 3.332031 4.167969 C 3.332031 3.476562 3.894531 2.917969 4.582031 2.917969 L 15.417969 2.917969 C 16.105469 2.917969 16.667969 3.476562 16.667969 4.167969 L 16.667969 4.582031 Z M 3.332031 4.582031 "/>
<path style=" stroke:none;fill-rule:nonzero;fill:rgb(90.588236%,29.803923%,23.529412%);fill-opacity:1;" d="M 11.667969 1.667969 L 8.332031 1.667969 C 7.871094 1.667969 7.5 2.039062 7.5 2.5 L 7.5 2.917969 L 12.5 2.917969 L 12.5 2.5 C 12.5 2.039062 12.128906 1.667969 11.667969 1.667969 Z M 11.667969 1.667969 "/>
<path style=" stroke:none;fill-rule:nonzero;fill:rgb(90.588236%,29.803923%,23.529412%);fill-opacity:1;" d="M 6.25 4.582031 L 13.75 4.582031 L 13.75 17.917969 L 6.25 17.917969 Z M 6.25 4.582031 "/>
</g>
</svg>
